<svg width="506" height="506" viewBox="0 0 506 506" fill="none" xmlns="http://www.w3.org/2000/svg">
<rect width="506" height="506" rx="101" fill="url(#paint0_linear_7_119)"/>
<g filter="url(#filter0_bd_7_119)">
<path fill-rule="evenodd" clip-rule="evenodd" d="M242.551 283.319C250.052 290.82 261.601 294.571 277.199 294.571H338.993C354.71 294.571 366.259 290.82 373.641 283.319C381.142 275.818 384.893 264.15 384.893 248.314V63.4657C384.893 57.1552 381.738 54 375.427 54C369.236 54 366.14 57.1552 366.14 63.4657V160.444C366.14 175.208 361.08 186.281 350.959 193.663C340.958 200.926 325.539 204.558 304.703 204.558H294.701C278.032 204.558 266.423 201.343 259.875 194.913C253.445 188.484 250.23 176.994 250.23 160.444V63.4657C250.23 57.1552 247.075 54 240.765 54C234.573 54 231.478 57.1552 231.478 63.4657V160.444C231.478 182.114 236.538 198.009 246.659 208.13C256.779 218.25 272.793 223.31 294.701 223.31H304.703C318.395 223.31 330.361 221.524 340.601 217.953C350.84 214.381 359.354 208.13 366.14 199.2V248.314C366.14 259.03 364.235 266.293 360.425 270.103C356.615 273.913 349.471 275.818 338.993 275.818H277.199C266.84 275.818 259.756 273.913 255.946 270.103C252.136 266.293 250.23 259.03 250.23 248.314C250.23 242.123 247.075 239.027 240.765 239.027C234.573 239.027 231.478 242.123 231.478 248.314C231.478 264.15 235.169 275.818 242.551 283.319ZM263.342 223.411C255.841 215.91 244.292 212.16 228.694 212.16H166.9C151.183 212.16 139.634 215.91 132.252 223.411C124.751 230.912 121 242.581 121 258.417V443.265C121 449.575 124.155 452.731 130.466 452.731C136.657 452.731 139.753 449.575 139.753 443.265V346.286C139.753 331.522 144.813 320.449 154.934 313.067C164.935 305.804 180.354 302.173 201.19 302.173H211.192C227.861 302.173 239.47 305.388 246.018 311.817C252.448 318.247 255.663 329.736 255.663 346.286V443.265C255.663 449.575 258.818 452.731 265.128 452.731C271.32 452.731 274.415 449.575 274.415 443.265V346.286C274.415 324.617 269.355 308.721 259.234 298.601C249.114 288.48 233.1 283.42 211.192 283.42H201.19C187.498 283.42 175.532 285.206 165.292 288.778C155.053 292.35 146.539 298.601 139.753 307.531V258.417C139.753 247.701 141.658 240.438 145.468 236.628C149.278 232.818 156.422 230.912 166.9 230.912H228.694C239.053 230.912 246.137 232.818 249.947 236.628C253.757 240.438 255.663 247.701 255.663 258.417C255.663 264.608 258.818 267.704 265.128 267.704C271.32 267.704 274.415 264.608 274.415 258.417C274.415 242.581 270.724 230.912 263.342 223.411Z" fill="url(#paint1_linear_7_119)"/>
</g>
<defs>
<filter id="filter0_bd_7_119" x="111.885" y="48.6829" width="282.123" height="416.961" filterUnits="userSpaceOnUse" color-interpolation-filters="sRGB">
<feFlood flood-opacity="0" result="BackgroundImageFix"/>
<feGaussianBlur in="BackgroundImageFix" stdDeviation="0.379791"/>
<feComposite in2="SourceAlpha" operator="in" result="effect1_backgroundBlur_7_119"/>
<feColorMatrix in="SourceAlpha" type="matrix" values="0 0 0 0 0 0 0 0 0 0 0 0 0 0 0 0 0 0 127 0" result="hardAlpha"/>
<feOffset dy="3.79791"/>
<feGaussianBlur stdDeviation="4.55749"/>
<feComposite in2="hardAlpha" operator="out"/>
<feColorMatrix type="matrix" values="0 0 0 0 0 0 0 0 0 0 0 0 0 0 0 0 0 0 0.25 0"/>
<feBlend mode="normal" in2="effect1_backgroundBlur_7_119" result="effect2_dropShadow_7_119"/>
<feBlend mode="normal" in="SourceGraphic" in2="effect2_dropShadow_7_119" result="shape"/>
</filter>
<linearGradient id="paint0_linear_7_119" x1="481.712" y1="25.3" x2="166.474" y2="437.69" gradientUnits="userSpaceOnUse">
<stop stop-color="#1AB0EF"/>
<stop offset="1" stop-color="#186CE3"/>
</linearGradient>
<linearGradient id="paint1_linear_7_119" x1="252.946" y1="54" x2="252.946" y2="452.731" gradientUnits="userSpaceOnUse">
<stop stop-color="#FFB62E"/>
<stop offset="1" stop-color="#FC8B1A"/>
</linearGradient>
</defs>
</svg>
