<svg width="283" height="418" viewBox="0 0 283 418" fill="none" xmlns="http://www.w3.org/2000/svg">
<g filter="url(#filter0_bd_7_115)">
<path fill-rule="evenodd" clip-rule="evenodd" d="M131.551 235.319C139.052 242.82 150.601 246.571 166.199 246.571H227.993C243.71 246.571 255.259 242.82 262.641 235.319C270.142 227.818 273.893 216.15 273.893 200.314V15.4657C273.893 9.15522 270.738 6 264.427 6C258.236 6 255.14 9.15522 255.14 15.4657V112.444C255.14 127.208 250.08 138.281 239.959 145.663C229.958 152.926 214.539 156.558 193.703 156.558H183.701C167.032 156.558 155.423 153.343 148.875 146.913C142.445 140.484 139.23 128.994 139.23 112.444V15.4657C139.23 9.15522 136.075 6 129.765 6C123.573 6 120.478 9.15522 120.478 15.4657V112.444C120.478 134.114 125.538 150.009 135.659 160.13C145.779 170.25 161.793 175.31 183.701 175.31H193.703C207.395 175.31 219.361 173.524 229.601 169.953C239.84 166.381 248.354 160.13 255.14 151.2V200.314C255.14 211.03 253.235 218.293 249.425 222.103C245.615 225.913 238.471 227.818 227.993 227.818H166.199C155.84 227.818 148.756 225.913 144.946 222.103C141.136 218.293 139.23 211.03 139.23 200.314C139.23 194.123 136.075 191.027 129.765 191.027C123.573 191.027 120.478 194.123 120.478 200.314C120.478 216.15 124.169 227.818 131.551 235.319ZM152.342 175.411C144.841 167.91 133.292 164.16 117.694 164.16H55.8995C40.183 164.16 28.6337 167.91 21.2516 175.411C13.7505 182.912 10 194.581 10 210.417V395.265C10 401.575 13.1552 404.731 19.4657 404.731C25.657 404.731 28.7527 401.575 28.7527 395.265V298.286C28.7527 283.522 33.813 272.449 43.9335 265.067C53.935 257.804 69.3539 254.173 90.1903 254.173H100.192C116.861 254.173 128.47 257.388 135.018 263.817C141.448 270.247 144.663 281.736 144.663 298.286V395.265C144.663 401.575 147.818 404.731 154.128 404.731C160.32 404.731 163.415 401.575 163.415 395.265V298.286C163.415 276.617 158.355 260.721 148.234 250.601C138.114 240.48 122.1 235.42 100.192 235.42H90.1903C76.4978 235.42 64.5318 237.206 54.2922 240.778C44.0526 244.35 35.5394 250.601 28.7527 259.531V210.417C28.7527 199.701 30.6578 192.438 34.4679 188.628C38.2779 184.818 45.4218 182.912 55.8995 182.912H117.694C128.053 182.912 135.137 184.818 138.947 188.628C142.757 192.438 144.663 199.701 144.663 210.417C144.663 216.608 147.818 219.704 154.128 219.704C160.32 219.704 163.415 216.608 163.415 210.417C163.415 194.581 159.724 182.912 152.342 175.411Z" fill="url(#paint0_linear_7_115)"/>
</g>
<defs>
<filter id="filter0_bd_7_115" x="0.885016" y="0.682926" width="282.123" height="416.961" filterUnits="userSpaceOnUse" color-interpolation-filters="sRGB">
<feFlood flood-opacity="0" result="BackgroundImageFix"/>
<feGaussianBlur in="BackgroundImageFix" stdDeviation="0.379791"/>
<feComposite in2="SourceAlpha" operator="in" result="effect1_backgroundBlur_7_115"/>
<feColorMatrix in="SourceAlpha" type="matrix" values="0 0 0 0 0 0 0 0 0 0 0 0 0 0 0 0 0 0 127 0" result="hardAlpha"/>
<feOffset dy="3.79791"/>
<feGaussianBlur stdDeviation="4.55749"/>
<feComposite in2="hardAlpha" operator="out"/>
<feColorMatrix type="matrix" values="0 0 0 0 0 0 0 0 0 0 0 0 0 0 0 0 0 0 0.25 0"/>
<feBlend mode="normal" in2="effect1_backgroundBlur_7_115" result="effect2_dropShadow_7_115"/>
<feBlend mode="normal" in="SourceGraphic" in2="effect2_dropShadow_7_115" result="shape"/>
</filter>
<linearGradient id="paint0_linear_7_115" x1="141.946" y1="6" x2="141.946" y2="404.731" gradientUnits="userSpaceOnUse">
<stop stop-color="#FFB62E"/>
<stop offset="1" stop-color="#FC8B1A"/>
</linearGradient>
</defs>
</svg>
